<?xml version="1.0" encoding="UTF-8"?>
<svg id="Layer_1" data-name="Layer 1" xmlns="http://www.w3.org/2000/svg" viewBox="0 0 1280 1024">
  <defs>
    <style>
      .cls-1 {
        fill: #654026;
      }

      .cls-2 {
        fill: #4a6f4a;
      }
    </style>
  </defs>
  <g>
    <path class="cls-1" d="M310.25,676.51v-33.22h-13.06v-6.19h33.44v6.19h-13.06v33.22h-7.32Z"/>
    <path class="cls-1" d="M340.65,676.51h-7.32v-39.41h7.32v39.41ZM361.6,659.62h-21.57v-6.25h21.57v6.25ZM361.04,637.1h7.32v39.41h-7.32v-39.41Z"/>
    <path class="cls-1" d="M383.45,670.37h22.24v6.14h-29.56v-39.41h28.77v6.14h-21.45v27.14ZM382.88,653.48h19.59v6.03h-19.59v-6.03Z"/>
    <path class="cls-1" d="M442,677.07c-3,0-5.79-.5-8.36-1.49-2.57-.99-4.81-2.4-6.7-4.22-1.9-1.82-3.37-3.97-4.42-6.45-1.05-2.48-1.58-5.18-1.58-8.11s.53-5.63,1.58-8.11c1.05-2.48,2.53-4.63,4.45-6.45,1.91-1.82,4.15-3.23,6.7-4.22,2.55-.99,5.35-1.49,8.39-1.49,3.23,0,6.17.55,8.84,1.66,2.67,1.11,4.92,2.75,6.76,4.93l-4.73,4.45c-1.43-1.54-3.02-2.69-4.79-3.46-1.76-.77-3.68-1.15-5.74-1.15s-3.95.34-5.66,1.01c-1.71.68-3.19,1.63-4.45,2.87-1.26,1.24-2.23,2.7-2.93,4.39-.69,1.69-1.04,3.55-1.04,5.57s.35,3.88,1.04,5.57c.69,1.69,1.67,3.15,2.93,4.39,1.26,1.24,2.74,2.2,4.45,2.87,1.71.68,3.59,1.01,5.66,1.01s3.98-.39,5.74-1.15c1.76-.77,3.36-1.94,4.79-3.52l4.73,4.5c-1.84,2.14-4.09,3.77-6.76,4.9-2.67,1.13-5.63,1.69-8.9,1.69Z"/>
    <path class="cls-1" d="M479.5,677.07c-3.08,0-5.91-.51-8.5-1.52-2.59-1.01-4.84-2.43-6.76-4.25-1.91-1.82-3.4-3.96-4.45-6.42-1.05-2.46-1.58-5.15-1.58-8.08s.53-5.62,1.58-8.08c1.05-2.46,2.53-4.6,4.45-6.42,1.91-1.82,4.17-3.24,6.76-4.25,2.59-1.01,5.4-1.52,8.45-1.52s5.9.51,8.47,1.52c2.57,1.01,4.81,2.43,6.73,4.25,1.91,1.82,3.4,3.96,4.45,6.42,1.05,2.46,1.58,5.15,1.58,8.08s-.53,5.63-1.58,8.11c-1.05,2.48-2.53,4.62-4.45,6.42-1.91,1.8-4.16,3.21-6.73,4.22-2.57,1.01-5.38,1.52-8.42,1.52ZM479.44,670.66c1.99,0,3.83-.34,5.52-1.01,1.69-.68,3.15-1.64,4.39-2.9,1.24-1.26,2.2-2.72,2.9-4.39.69-1.67,1.04-3.52,1.04-5.55s-.35-3.88-1.04-5.55c-.7-1.67-1.66-3.13-2.9-4.39-1.24-1.26-2.7-2.22-4.39-2.9-1.69-.68-3.53-1.01-5.52-1.01s-3.82.34-5.49,1.01c-1.67.68-3.13,1.64-4.39,2.9-1.26,1.26-2.23,2.72-2.93,4.39-.69,1.67-1.04,3.52-1.04,5.55s.35,3.83,1.04,5.52c.69,1.69,1.66,3.16,2.9,4.42,1.24,1.26,2.7,2.22,4.39,2.9,1.69.68,3.53,1.01,5.52,1.01Z"/>
    <path class="cls-1" d="M523.87,677.07c-3,0-5.79-.5-8.36-1.49-2.57-.99-4.81-2.4-6.7-4.22-1.9-1.82-3.37-3.97-4.42-6.45-1.05-2.48-1.58-5.18-1.58-8.11s.53-5.63,1.58-8.11c1.05-2.48,2.53-4.63,4.45-6.45,1.92-1.82,4.15-3.23,6.7-4.22,2.55-.99,5.35-1.49,8.39-1.49,3.23,0,6.17.55,8.84,1.66,2.67,1.11,4.92,2.75,6.76,4.93l-4.73,4.45c-1.43-1.54-3.02-2.69-4.79-3.46-1.76-.77-3.68-1.15-5.74-1.15s-3.95.34-5.66,1.01c-1.71.68-3.19,1.63-4.45,2.87-1.26,1.24-2.23,2.7-2.93,4.39-.7,1.69-1.04,3.55-1.04,5.57s.35,3.88,1.04,5.57c.7,1.69,1.67,3.15,2.93,4.39,1.26,1.24,2.74,2.2,4.45,2.87,1.71.68,3.59,1.01,5.66,1.01s3.98-.39,5.74-1.15c1.76-.77,3.36-1.94,4.79-3.52l4.73,4.5c-1.84,2.14-4.09,3.77-6.76,4.9-2.67,1.13-5.63,1.69-8.9,1.69Z"/>
    <path class="cls-1" d="M561.36,677.07c-3.08,0-5.91-.51-8.5-1.52-2.59-1.01-4.84-2.43-6.76-4.25-1.91-1.82-3.4-3.96-4.45-6.42-1.05-2.46-1.58-5.15-1.58-8.08s.53-5.62,1.58-8.08c1.05-2.46,2.53-4.6,4.45-6.42,1.92-1.82,4.17-3.24,6.76-4.25,2.59-1.01,5.41-1.52,8.45-1.52s5.9.51,8.47,1.52c2.57,1.01,4.81,2.43,6.73,4.25,1.92,1.82,3.4,3.96,4.45,6.42,1.05,2.46,1.58,5.15,1.58,8.08s-.53,5.63-1.58,8.11c-1.05,2.48-2.53,4.62-4.45,6.42-1.91,1.8-4.16,3.21-6.73,4.22-2.57,1.01-5.38,1.52-8.42,1.52ZM561.31,670.66c1.99,0,3.83-.34,5.52-1.01,1.69-.68,3.15-1.64,4.39-2.9,1.24-1.26,2.2-2.72,2.9-4.39.69-1.67,1.04-3.52,1.04-5.55s-.35-3.88-1.04-5.55c-.7-1.67-1.66-3.13-2.9-4.39-1.24-1.26-2.7-2.22-4.39-2.9-1.69-.68-3.53-1.01-5.52-1.01s-3.82.34-5.49,1.01c-1.67.68-3.13,1.64-4.39,2.9-1.26,1.26-2.23,2.72-2.93,4.39-.7,1.67-1.04,3.52-1.04,5.55s.35,3.83,1.04,5.52c.7,1.69,1.66,3.16,2.9,4.42,1.24,1.26,2.7,2.22,4.39,2.9,1.69.68,3.53,1.01,5.52,1.01Z"/>
    <path class="cls-1" d="M587.49,676.51v-39.41h6.02l24.72,30.35h-2.98v-30.35h7.26v39.41h-6.02l-24.72-30.35h2.98v30.35h-7.26Z"/>
    <path class="cls-1" d="M647.23,677.07c-5.41,0-9.64-1.52-12.7-4.56-3.06-3.04-4.59-7.43-4.59-13.17v-22.24h7.32v21.96c0,4.05.87,7,2.62,8.84,1.75,1.84,4.21,2.76,7.4,2.76s5.65-.92,7.38-2.76c1.73-1.84,2.59-4.79,2.59-8.84v-21.96h7.21v22.24c0,5.74-1.53,10.13-4.59,13.17-3.06,3.04-7.27,4.56-12.64,4.56Z"/>
    <path class="cls-1" d="M679.15,676.51v-33.22h-13.06v-6.19h33.44v6.19h-13.06v33.22h-7.32Z"/>
    <path class="cls-1" d="M733.2,677.07c-3,0-5.79-.5-8.36-1.49-2.57-.99-4.81-2.4-6.7-4.22-1.9-1.82-3.37-3.97-4.42-6.45-1.05-2.48-1.58-5.18-1.58-8.11s.53-5.63,1.58-8.11c1.05-2.48,2.53-4.63,4.45-6.45,1.91-1.82,4.15-3.23,6.7-4.22,2.55-.99,5.35-1.49,8.39-1.49,3.23,0,6.17.55,8.84,1.66,2.66,1.11,4.92,2.75,6.76,4.93l-4.73,4.45c-1.43-1.54-3.02-2.69-4.79-3.46-1.77-.77-3.68-1.15-5.74-1.15s-3.95.34-5.66,1.01c-1.71.68-3.19,1.63-4.45,2.87-1.26,1.24-2.23,2.7-2.93,4.39-.7,1.69-1.04,3.55-1.04,5.57s.35,3.88,1.04,5.57c.69,1.69,1.67,3.15,2.93,4.39,1.26,1.24,2.74,2.2,4.45,2.87,1.71.68,3.59,1.01,5.66,1.01s3.98-.39,5.74-1.15c1.76-.77,3.36-1.94,4.79-3.52l4.73,4.5c-1.84,2.14-4.09,3.77-6.76,4.9-2.67,1.13-5.63,1.69-8.9,1.69Z"/>
    <path class="cls-1" d="M770.7,677.07c-3.08,0-5.91-.51-8.5-1.52-2.59-1.01-4.84-2.43-6.76-4.25-1.91-1.82-3.4-3.96-4.45-6.42-1.05-2.46-1.58-5.15-1.58-8.08s.53-5.62,1.58-8.08c1.05-2.46,2.53-4.6,4.45-6.42,1.91-1.82,4.17-3.24,6.76-4.25,2.59-1.01,5.41-1.52,8.45-1.52s5.9.51,8.47,1.52c2.57,1.01,4.81,2.43,6.73,4.25,1.91,1.82,3.4,3.96,4.45,6.42,1.05,2.46,1.58,5.15,1.58,8.08s-.53,5.63-1.58,8.11c-1.05,2.48-2.53,4.62-4.45,6.42-1.92,1.8-4.16,3.21-6.73,4.22-2.57,1.01-5.38,1.52-8.42,1.52ZM770.64,670.66c1.99,0,3.83-.34,5.52-1.01,1.69-.68,3.15-1.64,4.39-2.9,1.24-1.26,2.2-2.72,2.9-4.39.69-1.67,1.04-3.52,1.04-5.55s-.35-3.88-1.04-5.55c-.7-1.67-1.66-3.13-2.9-4.39-1.24-1.26-2.7-2.22-4.39-2.9-1.69-.68-3.53-1.01-5.52-1.01s-3.82.34-5.49,1.01c-1.67.68-3.14,1.64-4.39,2.9-1.26,1.26-2.23,2.72-2.93,4.39-.7,1.67-1.04,3.52-1.04,5.55s.35,3.83,1.04,5.52c.69,1.69,1.66,3.16,2.9,4.42,1.24,1.26,2.7,2.22,4.39,2.9,1.69.68,3.53,1.01,5.52,1.01Z"/>
    <path class="cls-1" d="M796.83,676.51v-39.41h6.02l17.23,28.77h-3.15l16.95-28.77h6.02l.06,39.41h-6.92l-.06-28.55h1.46l-14.41,24.04h-3.27l-14.64-24.04h1.69v28.55h-6.98Z"/>
    <path class="cls-1" d="M847.78,676.51v-39.41h16.22c3.49,0,6.48.56,8.98,1.69,2.5,1.13,4.42,2.74,5.77,4.84s2.03,4.6,2.03,7.49-.68,5.39-2.03,7.49c-1.35,2.1-3.28,3.72-5.77,4.84-2.5,1.13-5.49,1.69-8.98,1.69h-12.16l3.27-3.43v14.81h-7.32ZM855.1,662.49l-3.27-3.55h11.82c3.23,0,5.66-.68,7.29-2.06,1.63-1.37,2.45-3.29,2.45-5.77s-.82-4.45-2.45-5.8c-1.63-1.35-4.06-2.03-7.29-2.03h-11.82l3.27-3.6v22.8Z"/>
    <path class="cls-1" d="M877.73,676.51l17.74-39.41h7.21l17.79,39.41h-7.66l-15.26-35.53h2.93l-15.2,35.53h-7.54ZM885.9,667.39l1.97-5.74h21.28l1.97,5.74h-25.22Z"/>
    <path class="cls-1" d="M922.66,676.51v-39.41h6.02l24.72,30.35h-2.98v-30.35h7.26v39.41h-6.02l-24.72-30.35h2.98v30.35h-7.26Z"/>
    <path class="cls-1" d="M975.14,676.51v-15.6l1.63,4.5-17.12-28.32h7.83l13.74,22.8h-4.39l13.85-22.8h7.21l-17.12,28.32,1.69-4.5v15.6h-7.32Z"/>
  </g>
  <g>
    <path class="cls-2" d="M866.94,403.2c25.08,24.11,30.25,56.25.99,79.5-30.69,24.39-78.75,27.01-101.4-9.26-8.91-14.28-9.58-36.25-7.31-52.59,8.67-62.45,72.55-51.46,107.72-17.65ZM800.26,386.92c-36.96,4.33-20.01,43.02-1.06,59.21,35.7,30.5,108.75,22.68,64.24-30.77-13.69-16.44-41.45-30.99-63.18-28.44Z"/>
    <path class="cls-1" d="M548.81,576.41c-21.07,0-40.16-3.68-57.25-11.03-17.1-7.36-31.87-17.54-44.3-30.55-12.44-13-22.02-27.89-28.76-44.66-6.74-16.77-10.1-34.56-10.1-53.38,0-25.32,5.78-48.43,17.36-69.31,11.57-20.87,27.8-37.65,48.7-50.31,20.9-12.66,45.68-18.99,74.35-18.99s51.72,6.14,72.28,18.39c20.55,12.26,35.66,28.59,45.34,48.96l-55.44,17.62c-6.22-11.4-14.95-20.29-26.17-26.68-11.23-6.39-23.58-9.58-37.05-9.58-15.2,0-28.94,3.84-41.19,11.5-12.27,7.66-21.94,18.21-29.02,31.67-7.08,13.46-10.62,29.03-10.62,46.74s3.63,32.44,10.88,46.23c7.25,13.79,17.01,24.69,29.27,32.69,12.26,8.01,25.99,12.01,41.19,12.01,9.33,0,18.39-1.64,27.2-4.92,8.81-3.28,16.49-7.77,23.06-13.47,6.56-5.7,11.22-12,13.99-18.91l55.96,16.58c-5.88,13.47-14.6,25.39-26.17,35.75-11.58,10.36-25.22,18.57-40.93,24.61-15.72,6.04-33.25,9.07-52.59,9.07Z"/>
    <path class="cls-1" d="M821.87,576.41c-21.42,0-40.59-3.68-57.51-11.03-16.93-7.36-31.52-17.54-43.78-30.55-12.26-13-21.68-27.81-28.24-44.41-6.57-16.6-9.84-34.3-9.84-53.13s3.28-36.62,9.84-53.39c6.56-16.77,15.97-31.57,28.24-44.4,12.26-12.83,26.94-22.93,44.04-30.29,17.1-7.36,36.18-11.04,57.25-11.04s40.16,3.68,57.25,11.04c17.1,7.36,31.78,17.45,44.04,30.29,12.26,12.83,21.67,27.63,28.24,44.4,6.56,16.77,9.85,34.57,9.85,53.39s-3.29,36.54-9.85,53.13c-6.57,16.6-15.98,31.4-28.24,44.41-12.27,13-26.94,23.19-44.04,30.55-17.1,7.35-36.19,11.03-57.25,11.03ZM741.04,437.8c0,17.03,3.63,32.36,10.88,45.98,7.25,13.63,16.92,24.35,29.01,32.18,12.09,7.84,25.73,11.75,40.93,11.75s28.41-4,40.67-12.01c12.26-8,22.02-18.9,29.27-32.69,7.25-13.79,10.88-29.02,10.88-45.72s-3.63-32.35-10.88-45.97c-7.25-13.62-17.02-24.43-29.27-32.44-12.27-8-25.83-12.01-40.67-12.01s-28.85,4.09-40.93,12.26c-12.09,8.18-21.76,18.99-29.01,32.43-7.25,13.46-10.88,28.86-10.88,46.23Z"/>
    <circle class="cls-1" cx="366.9" cy="543.34" r="33.07"/>
  </g>
</svg>